<?xml version="1.0" encoding="UTF-8"?>
<svg id="WonderTax-Labs-brandmark" xmlns="http://www.w3.org/2000/svg" data-name="WonderTax-Labs-brandmark" version="1.1" viewBox="0 0 404 404">
  <defs>
    <style>
      .wtl-inside {
        fill: #7edd47;
      }

      .wtl-inside, .wtl-bottle {
        stroke-width: 0px;
      }

      .wtl-bottle {
        fill: #323335;
      }
    </style>
  </defs>
  <path class="wtl-bottle" d="M334.5,119.2l33.5-58c.8-1.4.3-3.3-1.1-4.1L270.9,1.6c-1.4-.8-3.3-.3-4.1,1.1l-33.5,58.1c-.6,1.1-1.9,1.7-3.1,1.5-70.6-11.7-141.3,21.5-177.1,83.7-47.4,82.1-19.2,187.5,63,234.9,82.3,47.5,187.5,19.3,234.9-63,35.8-62.1,29.3-139.9-16.1-195.2-.8-1-.9-2.3-.3-3.4h0ZM133.2,351c-65.8-38-88.3-122.2-50.3-188,12-20.8,29.2-38.1,50-50.1h.2c29.3-17.1,63.9-22.6,97.1-15.7l17.4,3.6c1.3.3,2.6-.3,3.2-1.4l28.7-49.7c.8-1.4,2.7-1.9,4.1-1.1l36.5,21.1c1.4.8,1.9,2.7,1.1,4.1l-28.7,49.6c-.6,1.1-.5,2.5.4,3.5l11.8,13.2c50.6,56.7,45.8,143.6-10.9,194.3-44.3,39.6-109,46.3-160.5,16.6h0Z"/>
  <path class="wtl-inside" d="M173.5,339.9c69.6,17.3,111.8-32,121-51.2.8-1.8-1.4-3.4-2.7-1.9-10.2,11.5-30.3,21.9-55.2,14.4-27.2-8.7-42.8-37.1-35.5-64.7,7.7-28.5-9.3-57.9-37.8-65.5-27.5-7.8-57.5,8-66,39.8-14,55,19,113.9,76.2,129h0Z"/>
</svg>