<svg id="WonderTax-Labs-brandmark" data-name="WonderTax-Labs-brandmark" xmlns="http://www.w3.org/2000/svg" viewBox="0 0 344.02 403.69">
    <defs>
        <style>
            .wtl-bottle{fill:#323335;}
            .wtl-inside{fill:#7EDD47;}
        </style>
    </defs>
	<path class="wtl-bottle" d="M303.5,120.91l36-62.44L238.27,0,202.2,62.46A172,172,0,0,0,23,145.79C-24.4,227.9,3.83,333.29,86,380.71A172,172,0,0,0,303.5,120.91Zm-200.34,230a137.62,137.62,0,0,1-.34-238.13l.18-.09a137.62,137.62,0,0,1,97.09-15.61l19.49,4.08L250.85,47l41.69,24.08L261.29,125.2l13.27,14.86a137.6,137.6,0,0,1-171.4,210.86Z"/>
	<path class="wtl-inside" d="M143.46,339.78a107,107,0,0,0,130.4-73.42,53.5,53.5,0,0,1-102.7-29.91A53.5,53.5,0,0,0,67.81,208.74q-.28,1-.51,2A107,107,0,0,0,143.46,339.78Z"/>
</svg>